<svg xmlns="http://www.w3.org/2000/svg" viewBox="0 0 671 172.07"><defs><style>.cls-1,.cls-5{fill:#fff;stroke:#000;stroke-miterlimit:10;}.cls-1{stroke-width:0.5px;}.cls-2{fill:#c5a95d;}.cls-3{fill:#c6aa5e;}.cls-4{fill:#c5a95f;}.cls-5{stroke-width:0.24px;}</style></defs><g id="Capa_2" data-name="Capa 2"><g id="Layer_1" data-name="Layer 1"><path class="cls-1" d="M151.36,35q-42.09,0-84.18,0V50.67q9.13,0,18.26,0V85.12q0,29.44,0,58.88c5.24,0,10.49,0,15.73,0V82h0V65h0V50.67c13,0,25.91,0,38.87,0a10.87,10.87,0,0,0,9.61-5C151.8,42.53,151.26,38.55,151.36,35ZM15.5,35c.06,5.25-.23,10.5.26,15.73,11.5-.06,23,0,34.5,0V35C38.68,35,27.09,34.93,15.5,35Z"/><path class="cls-1" d="M315.31,54.4c8.32-4.88,18.61-4.48,27.79-2.83,7.91,1.49,15.45,7.91,15.16,16.5h-12c-.83-2.31-1.59-5-3.86-6.29-4.55-2.91-10.36-2.92-15.47-1.85-3.69.59-7.46,4.18-6,8.16,2.33,3.68,7,4,10.89,4.63,7.94,1.3,16.65,1.23,23.46,6.07C362.6,84.33,361.48,97,354,102c-7,4.8-15.93,5.45-24.14,4.91-6.66-.49-13.89-2.08-18.54-7.25-3-3.12-3.85-7.5-4.24-11.63,4.19-.18,8.4-.13,12.6-.13.31,3.68,2.22,7.4,5.89,8.67,5.84,2.16,12.84,2.43,18.55-.25,4.45-1.79,4.7-9.08-.06-10.65-9.64-3.79-20.94-2.14-30-7.68C305.83,72.79,307.12,59,315.31,54.4Z"/><path class="cls-1" d="M199.84,52c17.26,0,34.52-.06,51.78,0-.47,3.89-2.84,7.88-7,8.57-4.38.49-8.8.12-13.19.21,0,14.89,0,29.78,0,44.67-3.86.13-7.72.11-11.58.08-.13-14.92,0-29.84-.09-44.77-6.6.06-13.21,0-19.81,0C199.85,57.84,199.84,54.9,199.84,52Z"/><path class="cls-1" d="M256.28,52c15.57-.13,31.15,0,46.72-.06,0,2.95,0,5.89,0,8.84q-17.49,0-35,0,0,6.45,0,12.89,10.64,0,21.28,0c.07,2.93.07,5.86,0,8.79-7.1.06-14.21,0-21.31,0q0,7.11,0,14.22c11.81.05,23.64-.13,35.45.1,0,2.86,0,5.74,0,8.61-15.73.1-31.48.37-47.19-.14C256.3,87.52,256.27,69.76,256.28,52Z"/><path class="cls-1" d="M366.44,52c3.89-.09,7.77-.08,11.66-.06,0,17.85,0,35.71,0,53.56-3.76-.39-8.16.92-11.52-.67C366.29,87.24,366.55,69.62,366.44,52Z"/><path class="cls-1" d="M383,52c17.18,0,34.37-.07,51.55.06a63.27,63.27,0,0,1-.36,8.81c-6.53-.07-13.06,0-19.58,0,0,14.84,0,29.68,0,44.52a116.33,116.33,0,0,1-11.66.21q0-22.37,0-44.73c-6.66,0-13.31,0-19.95,0C383,57.84,383,54.9,383,52Z"/><path class="cls-1" d="M439,52c3.89,0,7.78,0,11.67.06,0,10,0,20,0,30,.13,4.43.05,9.52,3.44,12.88,4.59,3.95,11.25,3.54,16.85,2.7a10.83,10.83,0,0,0,8.64-10.41c.5-11.73.09-23.49.23-35.23,3.88,0,7.76,0,11.64,0,0,11.35.12,22.7-.08,34.05,0,6.27-2.34,13-7.9,16.48-5.91,4.19-13.5,4.63-20.5,4.5s-14.71-1.84-19.47-7.42c-3.81-4.55-4.63-10.8-4.55-16.54C439,72.68,439,62.32,439,52Z"/><path class="cls-1" d="M501.38,52c10.55-.12,21.11,0,31.67-.06,4.63,0,9.55.06,13.74,2.34,9.52,4.88,8.7,21.53-1.57,25.12a10.09,10.09,0,0,1,6.63,7.91c.9,6,0,12.38,2.47,18.14-4.16.1-8.31.1-12.47.08-1.77-5.27-.54-11-2.13-16.28-1-3.25-4.6-4.71-7.72-4.66-6.33-.09-12.65,0-19,0q0,10.47,0,20.94c-3.9.07-7.79.1-11.67-.21C501.41,87.53,501.37,69.77,501.38,52ZM513,60.78q0,7.48,0,15c6,0,12,0,18,0a16.89,16.89,0,0,0,7.47-1.3c2.85-1.68,3.18-5.51,2.59-8.45-.72-3.59-4.76-5.24-8.07-5.18C526.35,60.68,519.69,60.83,513,60.78Z"/><path class="cls-1" d="M555.72,105.5c8.06-17.84,15.77-35.83,24-53.59,4.48.06,9,.05,13.46,0q12,26.79,23.84,53.61c-4.32,0-8.63,0-12.94,0-1.9-4.37-3.75-8.77-5.61-13.15-8.21,0-16.42,0-24.63,0-2.06,4.31-3.13,9.21-6,13.06C563.83,105.72,559.77,105.48,555.72,105.5Zm30.52-43.39c-2.89,7.17-6,14.27-8.76,21.48,5.81-.07,11.62,0,17.44,0Q590.57,72.85,586.24,62.11Z"/><path class="cls-2" d="M525.63,108.49l3.91-.1c1.5,1.87,3,3.74,4.49,5.63l-2.87.08C529.29,112.25,527.42,110.4,525.63,108.49Z"/><path class="cls-2" d="M486.43,114.61c4.28-.72,9.07-.28,12.6,2.47,7,5.07,7,17,0,22.11-7.18,5.4-19.94,3.11-22.78-6.07C473.42,125.48,478,115.79,486.43,114.61Zm.07,3.09C478,119.4,476.36,132.16,483,137a12.5,12.5,0,0,0,12.73.66c6.8-3.55,6.94-14.93.35-18.77A12.48,12.48,0,0,0,486.5,117.7Z"/><path class="cls-2" d="M573.24,116.23c7.37-4.39,19.78-1.48,20.81,8.2-3.61.83-3.91-2.76-5.66-4.74-5.3-4.35-15.5-2.94-17.52,4.25-1.15,4.06-.76,8.94,2.16,12.19,3.28,3.31,8.71,3.65,12.87,2,3-1.18,4.23-4.28,5.18-7.1h3.2c-.84,4-2.89,7.8-6.72,9.52a15.49,15.49,0,0,1-16.29-1.78C564.72,132.9,565.57,120.75,573.24,116.23Z"/><path class="cls-3" d="M451.64,115c5.7.18,11.48-.48,17.15.38,6.3,1.36,7,11.36,1.29,14-4.74,2-10.07.83-15.07,1.11,0,3.65,0,7.29,0,10.94l-3.36-.13Q451.61,128.13,451.64,115Zm3.36,3.11v9.42c4-.07,8.05.26,12.06-.2,4.29-.45,4.76-7.58.95-9C463.69,117.79,459.33,118.17,455,118.08Z"/><path class="cls-2" d="M507.58,115l3.42-.06V138.4h16.06c0,.74.11,2.22.15,3-6.55,0-13.09.06-19.63-.06Q507.55,128.15,507.58,115Z"/><path class="cls-2" d="M529.62,115l3.38,0v26.47l-3.39-.16Q529.61,128.12,529.62,115Z"/><path class="cls-2" d="M534.75,115h23.5c0,.78,0,2.33,0,3.11H548.09c0,7.77,0,15.53,0,23.3h-3.16c0-7.77,0-15.53,0-23.3H534.74C534.74,117.29,534.75,115.74,534.75,115Z"/><path class="cls-2" d="M560,114.94l3.42.06q0,13.13,0,26.26l-3.42.17Z"/><path class="cls-2" d="M605.23,115.05l3.61-.14q6,13.11,11.89,26.24l-3.55.31c-1.15-2.68-2.37-5.34-3.61-8-4.38,0-8.74,0-13.11,0-1.23,2.63-2.44,5.27-3.6,7.94l-3.37-.22C597.32,132.46,601.47,123.84,605.23,115.05Zm-3.57,15.49q5.37,0,10.76,0c-1.88-3.94-3.5-8-5.35-11.93C605.28,122.6,603.53,126.6,601.66,130.54Z"/><path class="cls-3" d="M199.85,127.07q122.4,0,244.81,0c0,.75,0,2.27,0,3q-122.38.08-244.79,0Z"/><path class="cls-3" d="M0,171.07q335.51,0,671,0v1H0Z"/><path class="cls-4" d="M176.07,72.13A38.07,38.07,0,0,1,150,82c-16.28,0-32.54,0-48.82,0V65c16.94,0,33.88.07,50.83,0,10.88-.28,19.77-10.33,20.25-20.94.24-8.94,0-17.89.09-26.83H67.18c0,5.55,0,11.12,0,16.68V144H50.29q0-44.2,0-88.42V50.67h0V35h0V33.83c0-5.57,0-11.12,0-16.68-11.6,0-23.21.1-34.81-.08q0-8.52,0-17Q102.24,0,189,0c0,14,0,28,0,42A38.93,38.93,0,0,1,176.07,72.13Z"/><rect class="cls-5" x="50.26" y="50.67" width="0.03" height="4.91"/><rect class="cls-5" x="50.26" y="33.83" width="0.03" height="1.12"/></g></g></svg>